<svg xmlns="http://www.w3.org/2000/svg" xmlns:xlink="http://www.w3.org/1999/xlink" xmlns:lucid="lucid" width="961" height="803.65"><g transform="translate(20.5 111.1549793090624)" lucid:page-tab-id="0_0"><path d="M0-500h1000v1500H0z" fill="#fff"/><path d="M720-82.66a8 8 0 0 1 8-8h184a8 8 0 0 1 8 8v248a8 8 0 0 1-8 8H728a8 8 0 0 1-8-8z" fill="#fff"/><path d="M720-18.66v33h200v-33M720 45.34v33h200v-33M720 109.34v33h200v-33" fill="#e6e6e6"/><path d="M720-50.66v-32a8 8 0 0 1 8-8h184a8 8 0 0 1 8 8v32" fill="#6db1ff"/><path d="M720-82.66a8 8 0 0 1 8-8h184a8 8 0 0 1 8 8v248a8 8 0 0 1-8 8H728a8 8 0 0 1-8-8zM720-50.66h200" stroke="#333" fill="none"/><use xlink:href="#a" transform="matrix(1,0,0,1,730,-90.6549793090624) translate(59 23.6)"/><use xlink:href="#b" transform="matrix(1,0,0,1,725,-48.1549793090624) translate(0 17.1)"/><use xlink:href="#c" transform="matrix(1,0,0,1,725,-16.154979309062398) translate(0 17.1)"/><use xlink:href="#d" transform="matrix(1,0,0,1,725,15.845020690937602) translate(0 17.1)"/><use xlink:href="#e" transform="matrix(1,0,0,1,725,47.8450206909376) translate(0 17.1)"/><use xlink:href="#f" transform="matrix(1,0,0,1,725,79.8450206909376) translate(0 17.1)"/><use xlink:href="#g" transform="matrix(1,0,0,1,725,111.8450206909376) translate(0 17.1)"/><use xlink:href="#h" transform="matrix(1,0,0,1,725,143.8450206909376) translate(0 17.1)"/><path d="M380 68a8 8 0 0 1 8-8h184a8 8 0 0 1 8 8v280a8 8 0 0 1-8 8H388a8 8 0 0 1-8-8z" fill="#fff"/><path d="M380 132v33h200v-33M380 196v33h200v-33M380 260v33h200v-33M380 324v24a8 8 0 0 0 8 8h184a8 8 0 0 0 8-8v-24" fill="#e6e6e6"/><path d="M380 100V68a8 8 0 0 1 8-8h184a8 8 0 0 1 8 8v32" fill="#ff80df"/><path d="M380 68a8 8 0 0 1 8-8h184a8 8 0 0 1 8 8v280a8 8 0 0 1-8 8H388a8 8 0 0 1-8-8zM380 100h200" stroke="#333" fill="none"/><use xlink:href="#i" transform="matrix(1,0,0,1,390,60) translate(56.55 23.6)"/><use xlink:href="#j" transform="matrix(1,0,0,1,385,102.5) translate(0 17.1)"/><use xlink:href="#k" transform="matrix(1,0,0,1,385,134.5) translate(0 17.1)"/><use xlink:href="#l" transform="matrix(1,0,0,1,385,166.5) translate(0 17.1)"/><use xlink:href="#m" transform="matrix(1,0,0,1,385,198.5) translate(0 17.1)"/><use xlink:href="#n" transform="matrix(1,0,0,1,385,230.5) translate(0 17.1)"/><use xlink:href="#o" transform="matrix(1,0,0,1,385,262.5) translate(0 17.1)"/><use xlink:href="#p" transform="matrix(1,0,0,1,385,294.5) translate(0 17.1)"/><use xlink:href="#q" transform="matrix(1,0,0,1,385,326.5) translate(0 17.1)"/><path d="M20-72a8 8 0 0 1 8-8h184a8 8 0 0 1 8 8v216a8 8 0 0 1-8 8H28a8 8 0 0 1-8-8z" fill="#fff"/><path d="M20-8v33h200V-8M20 56v33h200V56M20 120v24a8 8 0 0 0 8 8h184a8 8 0 0 0 8-8v-24" fill="#e6e6e6"/><path d="M20-40v-32a8 8 0 0 1 8-8h184a8 8 0 0 1 8 8v32" fill="#ffe342"/><path d="M20-72a8 8 0 0 1 8-8h184a8 8 0 0 1 8 8v216a8 8 0 0 1-8 8H28a8 8 0 0 1-8-8zM20-40h200" stroke="#333" fill="none"/><use xlink:href="#r" transform="matrix(1,0,0,1,30,-80) translate(44.5 23.6)"/><use xlink:href="#s" transform="matrix(1,0,0,1,25,-37.5) translate(0 17.1)"/><use xlink:href="#t" transform="matrix(1,0,0,1,25,-5.5) translate(0 17.1)"/><use xlink:href="#j" transform="matrix(1,0,0,1,25,26.5) translate(0 17.1)"/><use xlink:href="#u" transform="matrix(1,0,0,1,25,58.5) translate(0 17.1)"/><use xlink:href="#v" transform="matrix(1,0,0,1,25,90.5) translate(0 17.1)"/><use xlink:href="#h" transform="matrix(1,0,0,1,25,122.5) translate(0 17.1)"/><path d="M40 512a8 8 0 0 1 8-8h184a8 8 0 0 1 8 8v152a8 8 0 0 1-8 8H48a8 8 0 0 1-8-8z" fill="#fff"/><path d="M40 576v33h200v-33M40 640v24a8 8 0 0 0 8 8h184a8 8 0 0 0 8-8v-24" fill="#e6e6e6"/><path d="M40 544v-32a8 8 0 0 1 8-8h184a8 8 0 0 1 8 8v32" fill="#9391ff"/><path d="M40 512a8 8 0 0 1 8-8h184a8 8 0 0 1 8 8v152a8 8 0 0 1-8 8H48a8 8 0 0 1-8-8zM40 544h200" stroke="#333" fill="none"/><use xlink:href="#w" transform="matrix(1,0,0,1,50,504) translate(7.125 23.6)"/><use xlink:href="#b" transform="matrix(1,0,0,1,45,546.5) translate(0 17.1)"/><use xlink:href="#j" transform="matrix(1,0,0,1,45,578.5) translate(0 17.1)"/><use xlink:href="#x" transform="matrix(1,0,0,1,45,610.5) translate(0 17.1)"/><use xlink:href="#h" transform="matrix(1,0,0,1,45,642.5) translate(0 17.1)"/><path d="M0 328a8 8 0 0 1 8-8h184a8 8 0 0 1 8 8v120a8 8 0 0 1-8 8H8a8 8 0 0 1-8-8z" fill="#fff"/><path d="M0 392v33h200v-33" fill="#e6e6e6"/><path d="M0 360v-32a8 8 0 0 1 8-8h184a8 8 0 0 1 8 8v32" fill="#9391ff"/><path d="M0 328a8 8 0 0 1 8-8h184a8 8 0 0 1 8 8v120a8 8 0 0 1-8 8H8a8 8 0 0 1-8-8zM0 360h200" stroke="#333" fill="none"/><use xlink:href="#y" transform="matrix(1,0,0,1,10,320) translate(43.074999999999996 23.6)"/><use xlink:href="#z" transform="matrix(1,0,0,1,5,362.5) translate(0 17.1)"/><use xlink:href="#A" transform="matrix(1,0,0,1,5,394.5) translate(0 17.1)"/><use xlink:href="#h" transform="matrix(1,0,0,1,5,426.5) translate(0 17.1)"/><path d="M699.5 29.29l-459.6-.02M719.5 29.29l-20-.02m0-10v20M220.72 29.29l20-.02m-20 10l20-10m-20-10l20 10M359.5 212.02H312a12 12 0 0 1-12-12v-83.68a12 12 0 0 0-12-12h-48.1M379.5 212.02h-20m0-10v20M220.72 104.34h20m-20 10l20-10m-20-10l20 10M220.5 393.85H808a12 12 0 0 0 12-12v-188.6M200.5 393.85h20m0 10v-20M820 174.07v20m-10-20l10 20m10-20l-10 20" stroke="#333" fill="none"/><path d="M220.5 429.67H468a12 12 0 0 0 12-12V375.9M200.5 429.67h20m0 10v-20M480 356.72v20m-10-20l10 20m10-20l-10 20M882.9 193.26v386.76a12 12 0 0 1-12 12H260.5M882.9 174.07v20m-10-20l10 20m10-20l-10 20M240.5 592.02h20m0 10v-20" stroke="#333" fill="none"/><path d="M599.9 244.18h8.6a12 12 0 0 1 12 12v282.4a12 12 0 0 1-12 12h-348M580.72 244.18h20m-20 10l20-10m-20-10l20 10M240.5 550.6h20m0 10v-20" stroke="#333" fill="none"/><defs><path d="M185-189c-5-48-123-54-124 2 14 75 158 14 163 119 3 78-121 87-175 55-17-10-28-26-33-46l33-7c5 56 141 63 141-1 0-78-155-14-162-118-5-82 145-84 179-34 5 7 8 16 11 25" id="B"/><path d="M59-47c-2 24 18 29 38 22v24C64 9 27 4 27-40v-127H5v-23h24l9-43h21v43h35v23H59v120" id="C"/><path d="M84 4C-5 8 30-112 23-190h32v120c0 31 7 50 39 49 72-2 45-101 50-169h31l1 190h-30c-1-10 1-25-2-33-11 22-28 36-60 37" id="D"/><path d="M85-194c31 0 48 13 60 33l-1-100h32l1 261h-30c-2-10 0-23-3-31C134-8 116 4 85 4 32 4 16-35 15-94c0-66 23-100 70-100zm9 24c-40 0-46 34-46 75 0 40 6 74 45 74 42 0 51-32 51-76 0-42-9-74-50-73" id="E"/><path d="M100-194c63 0 86 42 84 106H49c0 40 14 67 53 68 26 1 43-12 49-29l28 8c-11 28-37 45-77 45C44 4 14-33 15-96c1-61 26-98 85-98zm52 81c6-60-76-77-97-28-3 7-6 17-6 28h103" id="F"/><path d="M117-194c89-4 53 116 60 194h-32v-121c0-31-8-49-39-48C34-167 62-67 57 0H25l-1-190h30c1 10-1 24 2 32 11-22 29-35 61-36" id="G"/><g id="a"><use transform="matrix(0.05,0,0,0.05,0,0)" xlink:href="#B"/><use transform="matrix(0.05,0,0,0.05,12,0)" xlink:href="#C"/><use transform="matrix(0.05,0,0,0.05,17,0)" xlink:href="#D"/><use transform="matrix(0.05,0,0,0.05,27,0)" xlink:href="#E"/><use transform="matrix(0.05,0,0,0.05,37,0)" xlink:href="#F"/><use transform="matrix(0.05,0,0,0.05,47,0)" xlink:href="#G"/><use transform="matrix(0.05,0,0,0.05,57,0)" xlink:href="#C"/></g><path d="M33 0v-248h34V0H33" id="H"/><g id="b"><use transform="matrix(0.05,0,0,0.05,0,0)" xlink:href="#B"/><use transform="matrix(0.05,0,0,0.05,12,0)" xlink:href="#C"/><use transform="matrix(0.05,0,0,0.05,17,0)" xlink:href="#D"/><use transform="matrix(0.05,0,0,0.05,27,0)" xlink:href="#E"/><use transform="matrix(0.05,0,0,0.05,37,0)" xlink:href="#F"/><use transform="matrix(0.05,0,0,0.05,47,0)" xlink:href="#G"/><use transform="matrix(0.05,0,0,0.05,57,0)" xlink:href="#C"/><use transform="matrix(0.05,0,0,0.05,62,0)" xlink:href="#H"/><use transform="matrix(0.05,0,0,0.05,67,0)" xlink:href="#E"/></g><path d="M212-179c-10-28-35-45-73-45-59 0-87 40-87 99 0 60 29 101 89 101 43 0 62-24 78-52l27 14C228-24 195 4 139 4 59 4 22-46 18-125c-6-104 99-153 187-111 19 9 31 26 39 46" id="I"/><path d="M100-194c62-1 85 37 85 99 1 63-27 99-86 99S16-35 15-95c0-66 28-99 85-99zM99-20c44 1 53-31 53-75 0-43-8-75-51-75s-53 32-53 75 10 74 51 75" id="J"/><path d="M24 0v-261h32V0H24" id="K"/><path d="M177-190C167-65 218 103 67 71c-23-6-38-20-44-43l32-5c15 47 100 32 89-28v-30C133-14 115 1 83 1 29 1 15-40 15-95c0-56 16-97 71-98 29-1 48 16 59 35 1-10 0-23 2-32h30zM94-22c36 0 50-32 50-73 0-42-14-75-50-75-39 0-46 34-46 75s6 73 46 73" id="L"/><path d="M233-177c-1 41-23 64-60 70L243 0h-38l-65-103H63V0H30v-248c88 3 205-21 203 71zM63-129c60-2 137 13 137-47 0-61-80-42-137-45v92" id="M"/><path d="M190 0L58-211 59 0H30v-248h39L202-35l-2-213h31V0h-41" id="N"/><g id="c"><use transform="matrix(0.05,0,0,0.05,0,0)" xlink:href="#I"/><use transform="matrix(0.05,0,0,0.05,12.950000000000001,0)" xlink:href="#J"/><use transform="matrix(0.05,0,0,0.05,22.950000000000003,0)" xlink:href="#K"/><use transform="matrix(0.05,0,0,0.05,26.900000000000002,0)" xlink:href="#K"/><use transform="matrix(0.05,0,0,0.05,30.85,0)" xlink:href="#F"/><use transform="matrix(0.05,0,0,0.05,40.85,0)" xlink:href="#L"/><use transform="matrix(0.05,0,0,0.05,50.85,0)" xlink:href="#F"/><use transform="matrix(0.05,0,0,0.05,60.85,0)" xlink:href="#M"/><use transform="matrix(0.05,0,0,0.05,73.8,0)" xlink:href="#J"/><use transform="matrix(0.05,0,0,0.05,83.8,0)" xlink:href="#K"/><use transform="matrix(0.05,0,0,0.05,87.75,0)" xlink:href="#K"/><use transform="matrix(0.05,0,0,0.05,91.7,0)" xlink:href="#N"/><use transform="matrix(0.05,0,0,0.05,104.65,0)" xlink:href="#J"/></g><path d="M232-93c-1 65-40 97-104 97C67 4 28-28 28-90v-158h33c8 89-33 224 67 224 102 0 64-133 71-224h33v155" id="O"/><path d="M24-231v-30h32v30H24zM24 0v-190h32V0H24" id="P"/><path d="M108 0H70L1-190h34L89-25l56-165h34" id="Q"/><path d="M114-163C36-179 61-72 57 0H25l-1-190h30c1 12-1 29 2 39 6-27 23-49 58-41v29" id="R"/><path d="M135-143c-3-34-86-38-87 0 15 53 115 12 119 90S17 21 10-45l28-5c4 36 97 45 98 0-10-56-113-15-118-90-4-57 82-63 122-42 12 7 21 19 24 35" id="S"/><path d="M179-190L93 31C79 59 56 82 12 73V49c39 6 53-20 64-50L1-190h34L92-34l54-156h33" id="T"/><g id="d"><use transform="matrix(0.05,0,0,0.05,0,0)" xlink:href="#O"/><use transform="matrix(0.05,0,0,0.05,12.950000000000001,0)" xlink:href="#G"/><use transform="matrix(0.05,0,0,0.05,22.950000000000003,0)" xlink:href="#P"/><use transform="matrix(0.05,0,0,0.05,26.900000000000002,0)" xlink:href="#Q"/><use transform="matrix(0.05,0,0,0.05,35.900000000000006,0)" xlink:href="#F"/><use transform="matrix(0.05,0,0,0.05,45.900000000000006,0)" xlink:href="#R"/><use transform="matrix(0.05,0,0,0.05,51.85,0)" xlink:href="#S"/><use transform="matrix(0.05,0,0,0.05,60.85,0)" xlink:href="#P"/><use transform="matrix(0.05,0,0,0.05,64.80000000000001,0)" xlink:href="#C"/><use transform="matrix(0.05,0,0,0.05,69.80000000000001,0)" xlink:href="#T"/><use transform="matrix(0.05,0,0,0.05,78.80000000000001,0)" xlink:href="#M"/><use transform="matrix(0.05,0,0,0.05,91.75000000000001,0)" xlink:href="#J"/><use transform="matrix(0.05,0,0,0.05,101.75000000000001,0)" xlink:href="#K"/><use transform="matrix(0.05,0,0,0.05,105.7,0)" xlink:href="#K"/><use transform="matrix(0.05,0,0,0.05,109.65000000000003,0)" xlink:href="#N"/><use transform="matrix(0.05,0,0,0.05,122.60000000000002,0)" xlink:href="#J"/></g><path d="M141-36C126-15 110 5 73 4 37 3 15-17 15-53c-1-64 63-63 125-63 3-35-9-54-41-54-24 1-41 7-42 31l-33-3c5-37 33-52 76-52 45 0 72 20 72 64v82c-1 20 7 32 28 27v20c-31 9-61-2-59-35zM48-53c0 20 12 33 32 33 41-3 63-29 60-74-43 2-92-5-92 41" id="U"/><g id="e"><use transform="matrix(0.05,0,0,0.05,0,0)" xlink:href="#M"/><use transform="matrix(0.05,0,0,0.05,12.950000000000001,0)" xlink:href="#F"/><use transform="matrix(0.05,0,0,0.05,22.950000000000003,0)" xlink:href="#L"/><use transform="matrix(0.05,0,0,0.05,32.95,0)" xlink:href="#P"/><use transform="matrix(0.05,0,0,0.05,36.900000000000006,0)" xlink:href="#S"/><use transform="matrix(0.05,0,0,0.05,45.900000000000006,0)" xlink:href="#C"/><use transform="matrix(0.05,0,0,0.05,50.900000000000006,0)" xlink:href="#R"/><use transform="matrix(0.05,0,0,0.05,56.85,0)" xlink:href="#U"/><use transform="matrix(0.05,0,0,0.05,66.85000000000001,0)" xlink:href="#C"/><use transform="matrix(0.05,0,0,0.05,71.85000000000001,0)" xlink:href="#P"/><use transform="matrix(0.05,0,0,0.05,75.80000000000001,0)" xlink:href="#J"/><use transform="matrix(0.05,0,0,0.05,85.80000000000001,0)" xlink:href="#G"/><use transform="matrix(0.05,0,0,0.05,95.80000000000001,0)" xlink:href="#N"/><use transform="matrix(0.05,0,0,0.05,108.75,0)" xlink:href="#J"/></g><g id="f"><use transform="matrix(0.05,0,0,0.05,0,0)" xlink:href="#B"/><use transform="matrix(0.05,0,0,0.05,12,0)" xlink:href="#F"/><use transform="matrix(0.05,0,0,0.05,22,0)" xlink:href="#S"/><use transform="matrix(0.05,0,0,0.05,31,0)" xlink:href="#S"/><use transform="matrix(0.05,0,0,0.05,40,0)" xlink:href="#P"/><use transform="matrix(0.05,0,0,0.05,43.95,0)" xlink:href="#J"/><use transform="matrix(0.05,0,0,0.05,53.95,0)" xlink:href="#G"/></g><path d="M96-169c-40 0-48 33-48 73s9 75 48 75c24 0 41-14 43-38l32 2c-6 37-31 61-74 61-59 0-76-41-82-99-10-93 101-131 147-64 4 7 5 14 7 22l-32 3c-4-21-16-35-41-35" id="V"/><g id="g"><use transform="matrix(0.05,0,0,0.05,0,0)" xlink:href="#B"/><use transform="matrix(0.05,0,0,0.05,12,0)" xlink:href="#F"/><use transform="matrix(0.05,0,0,0.05,22,0)" xlink:href="#V"/><use transform="matrix(0.05,0,0,0.05,31,0)" xlink:href="#C"/><use transform="matrix(0.05,0,0,0.05,36,0)" xlink:href="#P"/><use transform="matrix(0.05,0,0,0.05,39.95,0)" xlink:href="#J"/><use transform="matrix(0.05,0,0,0.05,49.95,0)" xlink:href="#G"/></g><path d="M30-248c118-7 216 8 213 122C240-48 200 0 122 0H30v-248zM63-27c89 8 146-16 146-99s-60-101-146-95v194" id="W"/><g id="h"><use transform="matrix(0.05,0,0,0.05,0,0)" xlink:href="#H"/><use transform="matrix(0.05,0,0,0.05,5,0)" xlink:href="#S"/><use transform="matrix(0.05,0,0,0.05,14,0)" xlink:href="#W"/><use transform="matrix(0.05,0,0,0.05,26.950000000000003,0)" xlink:href="#F"/><use transform="matrix(0.05,0,0,0.05,36.95,0)" xlink:href="#K"/><use transform="matrix(0.05,0,0,0.05,40.900000000000006,0)" xlink:href="#F"/><use transform="matrix(0.05,0,0,0.05,50.900000000000006,0)" xlink:href="#C"/><use transform="matrix(0.05,0,0,0.05,55.900000000000006,0)" xlink:href="#F"/><use transform="matrix(0.05,0,0,0.05,65.9,0)" xlink:href="#E"/></g><g id="i"><use transform="matrix(0.05,0,0,0.05,0,0)" xlink:href="#I"/><use transform="matrix(0.05,0,0,0.05,12.950000000000001,0)" xlink:href="#J"/><use transform="matrix(0.05,0,0,0.05,22.950000000000003,0)" xlink:href="#D"/><use transform="matrix(0.05,0,0,0.05,32.95,0)" xlink:href="#R"/><use transform="matrix(0.05,0,0,0.05,38.900000000000006,0)" xlink:href="#S"/><use transform="matrix(0.05,0,0,0.05,47.900000000000006,0)" xlink:href="#F"/><use transform="matrix(0.05,0,0,0.05,57.900000000000006,0)" xlink:href="#S"/></g><g id="j"><use transform="matrix(0.05,0,0,0.05,0,0)" xlink:href="#I"/><use transform="matrix(0.05,0,0,0.05,12.950000000000001,0)" xlink:href="#J"/><use transform="matrix(0.05,0,0,0.05,22.950000000000003,0)" xlink:href="#D"/><use transform="matrix(0.05,0,0,0.05,32.95,0)" xlink:href="#R"/><use transform="matrix(0.05,0,0,0.05,38.900000000000006,0)" xlink:href="#S"/><use transform="matrix(0.05,0,0,0.05,47.900000000000006,0)" xlink:href="#F"/><use transform="matrix(0.05,0,0,0.05,57.900000000000006,0)" xlink:href="#H"/><use transform="matrix(0.05,0,0,0.05,62.900000000000006,0)" xlink:href="#E"/></g><g id="k"><use transform="matrix(0.05,0,0,0.05,0,0)" xlink:href="#I"/><use transform="matrix(0.05,0,0,0.05,12.950000000000001,0)" xlink:href="#J"/><use transform="matrix(0.05,0,0,0.05,22.950000000000003,0)" xlink:href="#E"/><use transform="matrix(0.05,0,0,0.05,32.95,0)" xlink:href="#F"/></g><path d="M127-220V0H93v-220H8v-28h204v28h-85" id="X"/><g id="l"><use transform="matrix(0.05,0,0,0.05,0,0)" xlink:href="#X"/><use transform="matrix(0.05,0,0,0.05,10.3,0)" xlink:href="#P"/><use transform="matrix(0.05,0,0,0.05,14.25,0)" xlink:href="#C"/><use transform="matrix(0.05,0,0,0.05,19.25,0)" xlink:href="#K"/><use transform="matrix(0.05,0,0,0.05,23.2,0)" xlink:href="#F"/></g><path d="M115-194c55 1 70 41 70 98S169 2 115 4C84 4 66-9 55-30l1 105H24l-1-265h31l2 30c10-21 28-34 59-34zm-8 174c40 0 45-34 45-75s-6-73-45-74c-42 0-51 32-51 76 0 43 10 73 51 73" id="Y"/><g id="m"><use transform="matrix(0.05,0,0,0.05,0,0)" xlink:href="#X"/><use transform="matrix(0.05,0,0,0.05,9.950000000000001,0)" xlink:href="#T"/><use transform="matrix(0.05,0,0,0.05,18.950000000000003,0)" xlink:href="#Y"/><use transform="matrix(0.05,0,0,0.05,28.950000000000003,0)" xlink:href="#F"/></g><path d="M210-169c-67 3-38 105-44 169h-31v-121c0-29-5-50-35-48C34-165 62-65 56 0H25l-1-190h30c1 10-1 24 2 32 10-44 99-50 107 0 11-21 27-35 58-36 85-2 47 119 55 194h-31v-121c0-29-5-49-35-48" id="Z"/><g id="n"><use transform="matrix(0.05,0,0,0.05,0,0)" xlink:href="#B"/><use transform="matrix(0.05,0,0,0.05,12,0)" xlink:href="#F"/><use transform="matrix(0.05,0,0,0.05,22,0)" xlink:href="#Z"/><use transform="matrix(0.05,0,0,0.05,36.95,0)" xlink:href="#F"/><use transform="matrix(0.05,0,0,0.05,46.95,0)" xlink:href="#S"/><use transform="matrix(0.05,0,0,0.05,55.95,0)" xlink:href="#C"/><use transform="matrix(0.05,0,0,0.05,60.95,0)" xlink:href="#F"/><use transform="matrix(0.05,0,0,0.05,70.95,0)" xlink:href="#R"/></g><path d="M205 0l-28-72H64L36 0H1l101-248h38L239 0h-34zm-38-99l-47-123c-12 45-31 82-46 123h93" id="aa"/><g id="o"><use transform="matrix(0.05,0,0,0.05,0,0)" xlink:href="#aa"/><use transform="matrix(0.05,0,0,0.05,12,0)" xlink:href="#S"/><use transform="matrix(0.05,0,0,0.05,21,0)" xlink:href="#S"/><use transform="matrix(0.05,0,0,0.05,30,0)" xlink:href="#P"/><use transform="matrix(0.05,0,0,0.05,33.95,0)" xlink:href="#L"/><use transform="matrix(0.05,0,0,0.05,43.95,0)" xlink:href="#G"/><use transform="matrix(0.05,0,0,0.05,53.95,0)" xlink:href="#F"/><use transform="matrix(0.05,0,0,0.05,63.95,0)" xlink:href="#E"/><use transform="matrix(0.05,0,0,0.05,73.95,0)" xlink:href="#X"/><use transform="matrix(0.05,0,0,0.05,82.9,0)" xlink:href="#J"/></g><path d="M197 0v-115H63V0H30v-248h33v105h134v-105h34V0h-34" id="ab"/><g id="p"><use transform="matrix(0.05,0,0,0.05,0,0)" xlink:href="#I"/><use transform="matrix(0.05,0,0,0.05,12.950000000000001,0)" xlink:href="#R"/><use transform="matrix(0.05,0,0,0.05,18.900000000000002,0)" xlink:href="#F"/><use transform="matrix(0.05,0,0,0.05,28.900000000000002,0)" xlink:href="#E"/><use transform="matrix(0.05,0,0,0.05,38.900000000000006,0)" xlink:href="#P"/><use transform="matrix(0.05,0,0,0.05,42.85000000000001,0)" xlink:href="#C"/><use transform="matrix(0.05,0,0,0.05,47.85000000000001,0)" xlink:href="#ab"/><use transform="matrix(0.05,0,0,0.05,60.80000000000001,0)" xlink:href="#J"/><use transform="matrix(0.05,0,0,0.05,70.80000000000001,0)" xlink:href="#D"/><use transform="matrix(0.05,0,0,0.05,80.80000000000001,0)" xlink:href="#R"/><use transform="matrix(0.05,0,0,0.05,86.75000000000001,0)" xlink:href="#S"/></g><path d="M106-169C34-169 62-67 57 0H25v-261h32l-1 103c12-21 28-36 61-36 89 0 53 116 60 194h-32v-121c2-32-8-49-39-48" id="ac"/><g id="q"><use transform="matrix(0.05,0,0,0.05,0,0)" xlink:href="#H"/><use transform="matrix(0.05,0,0,0.05,5,0)" xlink:href="#S"/><use transform="matrix(0.05,0,0,0.05,14,0)" xlink:href="#aa"/><use transform="matrix(0.05,0,0,0.05,26,0)" xlink:href="#R"/><use transform="matrix(0.05,0,0,0.05,31.950000000000003,0)" xlink:href="#V"/><use transform="matrix(0.05,0,0,0.05,40.95,0)" xlink:href="#ac"/><use transform="matrix(0.05,0,0,0.05,50.95,0)" xlink:href="#P"/><use transform="matrix(0.05,0,0,0.05,54.900000000000006,0)" xlink:href="#F"/><use transform="matrix(0.05,0,0,0.05,64.9,0)" xlink:href="#Q"/><use transform="matrix(0.05,0,0,0.05,73.9,0)" xlink:href="#F"/><use transform="matrix(0.05,0,0,0.05,83.9,0)" xlink:href="#E"/></g><g id="r"><use transform="matrix(0.05,0,0,0.05,0,0)" xlink:href="#aa"/><use transform="matrix(0.05,0,0,0.05,12,0)" xlink:href="#C"/><use transform="matrix(0.05,0,0,0.05,17,0)" xlink:href="#C"/><use transform="matrix(0.05,0,0,0.05,22,0)" xlink:href="#F"/><use transform="matrix(0.05,0,0,0.05,32,0)" xlink:href="#G"/><use transform="matrix(0.05,0,0,0.05,42,0)" xlink:href="#E"/><use transform="matrix(0.05,0,0,0.05,52,0)" xlink:href="#U"/><use transform="matrix(0.05,0,0,0.05,62,0)" xlink:href="#G"/><use transform="matrix(0.05,0,0,0.05,72,0)" xlink:href="#V"/><use transform="matrix(0.05,0,0,0.05,81,0)" xlink:href="#F"/></g><g id="s"><use transform="matrix(0.05,0,0,0.05,0,0)" xlink:href="#aa"/><use transform="matrix(0.05,0,0,0.05,12,0)" xlink:href="#C"/><use transform="matrix(0.05,0,0,0.05,17,0)" xlink:href="#C"/><use transform="matrix(0.05,0,0,0.05,22,0)" xlink:href="#F"/><use transform="matrix(0.05,0,0,0.05,32,0)" xlink:href="#G"/><use transform="matrix(0.05,0,0,0.05,42,0)" xlink:href="#E"/><use transform="matrix(0.05,0,0,0.05,52,0)" xlink:href="#U"/><use transform="matrix(0.05,0,0,0.05,62,0)" xlink:href="#G"/><use transform="matrix(0.05,0,0,0.05,72,0)" xlink:href="#V"/><use transform="matrix(0.05,0,0,0.05,81,0)" xlink:href="#F"/><use transform="matrix(0.05,0,0,0.05,91,0)" xlink:href="#H"/><use transform="matrix(0.05,0,0,0.05,96,0)" xlink:href="#E"/></g><g id="t"><use transform="matrix(0.05,0,0,0.05,0,0)" xlink:href="#B"/><use transform="matrix(0.05,0,0,0.05,12,0)" xlink:href="#C"/><use transform="matrix(0.05,0,0,0.05,17,0)" xlink:href="#D"/><use transform="matrix(0.05,0,0,0.05,27,0)" xlink:href="#E"/><use transform="matrix(0.05,0,0,0.05,37,0)" xlink:href="#F"/><use transform="matrix(0.05,0,0,0.05,47,0)" xlink:href="#G"/><use transform="matrix(0.05,0,0,0.05,57,0)" xlink:href="#C"/><use transform="matrix(0.05,0,0,0.05,62,0)" xlink:href="#H"/><use transform="matrix(0.05,0,0,0.05,67,0)" xlink:href="#E"/></g><path d="M143 0L79-87 56-68V0H24v-261h32v163l83-92h37l-77 82L181 0h-38" id="ad"/><path d="M240 0l2-218c-23 76-54 145-80 218h-23L58-218 59 0H30v-248h44l77 211c21-75 51-140 76-211h43V0h-30" id="ae"/><g id="u"><use transform="matrix(0.05,0,0,0.05,0,0)" xlink:href="#W"/><use transform="matrix(0.05,0,0,0.05,12.950000000000001,0)" xlink:href="#U"/><use transform="matrix(0.05,0,0,0.05,22.950000000000003,0)" xlink:href="#R"/><use transform="matrix(0.05,0,0,0.05,28.900000000000002,0)" xlink:href="#ad"/><use transform="matrix(0.05,0,0,0.05,37.900000000000006,0)" xlink:href="#ae"/><use transform="matrix(0.05,0,0,0.05,52.85,0)" xlink:href="#U"/><use transform="matrix(0.05,0,0,0.05,62.85,0)" xlink:href="#R"/><use transform="matrix(0.05,0,0,0.05,68.80000000000001,0)" xlink:href="#ad"/><use transform="matrix(0.05,0,0,0.05,77.80000000000001,0)" xlink:href="#F"/><use transform="matrix(0.05,0,0,0.05,87.80000000000001,0)" xlink:href="#E"/></g><path d="M160-131c35 5 61 23 61 61C221 17 115-2 30 0v-248c76 3 177-17 177 60 0 33-19 50-47 57zm-97-11c50-1 110 9 110-42 0-47-63-36-110-37v79zm0 115c55-2 124 14 124-45 0-56-70-42-124-44v89" id="af"/><g id="v"><use transform="matrix(0.05,0,0,0.05,0,0)" xlink:href="#ae"/><use transform="matrix(0.05,0,0,0.05,14.950000000000001,0)" xlink:href="#U"/><use transform="matrix(0.05,0,0,0.05,24.950000000000003,0)" xlink:href="#R"/><use transform="matrix(0.05,0,0,0.05,30.900000000000002,0)" xlink:href="#ad"/><use transform="matrix(0.05,0,0,0.05,39.900000000000006,0)" xlink:href="#F"/><use transform="matrix(0.05,0,0,0.05,49.900000000000006,0)" xlink:href="#E"/><use transform="matrix(0.05,0,0,0.05,59.900000000000006,0)" xlink:href="#af"/><use transform="matrix(0.05,0,0,0.05,71.9,0)" xlink:href="#T"/></g><g id="w"><use transform="matrix(0.05,0,0,0.05,0,0)" xlink:href="#I"/><use transform="matrix(0.05,0,0,0.05,12.950000000000001,0)" xlink:href="#K"/><use transform="matrix(0.05,0,0,0.05,16.900000000000002,0)" xlink:href="#U"/><use transform="matrix(0.05,0,0,0.05,26.900000000000002,0)" xlink:href="#S"/><use transform="matrix(0.05,0,0,0.05,35.900000000000006,0)" xlink:href="#S"/><use transform="matrix(0.05,0,0,0.05,44.900000000000006,0)" xlink:href="#M"/><use transform="matrix(0.05,0,0,0.05,57.85,0)" xlink:href="#F"/><use transform="matrix(0.05,0,0,0.05,67.85000000000001,0)" xlink:href="#Y"/><use transform="matrix(0.05,0,0,0.05,77.85000000000001,0)" xlink:href="#R"/><use transform="matrix(0.05,0,0,0.05,83.80000000000001,0)" xlink:href="#F"/><use transform="matrix(0.05,0,0,0.05,93.80000000000001,0)" xlink:href="#S"/><use transform="matrix(0.05,0,0,0.05,102.80000000000001,0)" xlink:href="#F"/><use transform="matrix(0.05,0,0,0.05,112.80000000000001,0)" xlink:href="#G"/><use transform="matrix(0.05,0,0,0.05,122.80000000000001,0)" xlink:href="#C"/><use transform="matrix(0.05,0,0,0.05,127.80000000000001,0)" xlink:href="#U"/><use transform="matrix(0.05,0,0,0.05,137.8,0)" xlink:href="#C"/><use transform="matrix(0.05,0,0,0.05,142.8,0)" xlink:href="#P"/><use transform="matrix(0.05,0,0,0.05,146.75,0)" xlink:href="#Q"/><use transform="matrix(0.05,0,0,0.05,155.75,0)" xlink:href="#F"/></g><g id="x"><use transform="matrix(0.05,0,0,0.05,0,0)" xlink:href="#N"/><use transform="matrix(0.05,0,0,0.05,12.950000000000001,0)" xlink:href="#J"/><use transform="matrix(0.05,0,0,0.05,22.950000000000003,0)" xlink:href="#Z"/><use transform="matrix(0.05,0,0,0.05,37.900000000000006,0)" xlink:href="#P"/><use transform="matrix(0.05,0,0,0.05,41.85000000000001,0)" xlink:href="#G"/><use transform="matrix(0.05,0,0,0.05,51.85,0)" xlink:href="#U"/><use transform="matrix(0.05,0,0,0.05,61.85,0)" xlink:href="#C"/><use transform="matrix(0.05,0,0,0.05,66.85000000000001,0)" xlink:href="#F"/><use transform="matrix(0.05,0,0,0.05,76.85000000000001,0)" xlink:href="#E"/><use transform="matrix(0.05,0,0,0.05,86.85000000000001,0)" xlink:href="#af"/><use transform="matrix(0.05,0,0,0.05,98.85000000000001,0)" xlink:href="#T"/></g><g id="y"><use transform="matrix(0.05,0,0,0.05,0,0)" xlink:href="#W"/><use transform="matrix(0.05,0,0,0.05,12.950000000000001,0)" xlink:href="#F"/><use transform="matrix(0.05,0,0,0.05,22.950000000000003,0)" xlink:href="#Y"/><use transform="matrix(0.05,0,0,0.05,32.95,0)" xlink:href="#U"/><use transform="matrix(0.05,0,0,0.05,42.95,0)" xlink:href="#R"/><use transform="matrix(0.05,0,0,0.05,48.900000000000006,0)" xlink:href="#C"/><use transform="matrix(0.05,0,0,0.05,53.900000000000006,0)" xlink:href="#Z"/><use transform="matrix(0.05,0,0,0.05,68.85000000000001,0)" xlink:href="#F"/><use transform="matrix(0.05,0,0,0.05,78.85000000000001,0)" xlink:href="#G"/><use transform="matrix(0.05,0,0,0.05,88.85000000000001,0)" xlink:href="#C"/></g><g id="z"><use transform="matrix(0.05,0,0,0.05,0,0)" xlink:href="#W"/><use transform="matrix(0.05,0,0,0.05,12.950000000000001,0)" xlink:href="#F"/><use transform="matrix(0.05,0,0,0.05,22.950000000000003,0)" xlink:href="#Y"/><use transform="matrix(0.05,0,0,0.05,32.95,0)" xlink:href="#U"/><use transform="matrix(0.05,0,0,0.05,42.95,0)" xlink:href="#R"/><use transform="matrix(0.05,0,0,0.05,48.900000000000006,0)" xlink:href="#C"/><use transform="matrix(0.05,0,0,0.05,53.900000000000006,0)" xlink:href="#Z"/><use transform="matrix(0.05,0,0,0.05,68.85000000000001,0)" xlink:href="#F"/><use transform="matrix(0.05,0,0,0.05,78.85000000000001,0)" xlink:href="#G"/><use transform="matrix(0.05,0,0,0.05,88.85000000000001,0)" xlink:href="#C"/><use transform="matrix(0.05,0,0,0.05,93.85000000000001,0)" xlink:href="#H"/><use transform="matrix(0.05,0,0,0.05,98.85000000000001,0)" xlink:href="#E"/></g><g id="A"><use transform="matrix(0.05,0,0,0.05,0,0)" xlink:href="#N"/><use transform="matrix(0.05,0,0,0.05,12.950000000000001,0)" xlink:href="#U"/><use transform="matrix(0.05,0,0,0.05,22.950000000000003,0)" xlink:href="#Z"/><use transform="matrix(0.05,0,0,0.05,37.900000000000006,0)" xlink:href="#F"/></g></defs></g></svg>